<?xml version="1.0" encoding="UTF-8"?>
<!DOCTYPE svg PUBLIC "-//W3C//DTD SVG 1.1//EN" "http://www.w3.org/Graphics/SVG/1.1/DTD/svg11.dtd">
<svg version="1.1" id="Layer_1" xmlns="http://www.w3.org/2000/svg" xmlns:xlink="http://www.w3.org/1999/xlink" x="0px" y="0px" viewBox="588.1117 -32.3873 1383.7767 1664.7744" enable-background="new 588.1117 -32.3873 1383.7767 1664.7744" xml:space="preserve">
<g>
    <path fill="#FFFFFF" d="M733.1716,517.8323C715.7623,321.917,766.5397,167.0382,919.7012,73.7142   c115.2932-60.3112,235.0273-85.9813,360.2982-68.1573c-60.0151-5.2406-122.7543-1.3324-185.6118,9.6818   c-211.9034,37.069-407.8483,227.9806-350.8532,506.2946c25.5516,124.7972,97.7948,194.9086,191.4741,216.4335   c3.02,0.681,6.04,1.3323,9.1192,1.9245c61.8805,11.9616,119.9415,20.5182,174.2126,25.5516   c-60.4889,3.3456-115.9445-2.7535-166.0706-18.8898l4.9445,114.4936c47.2838-5.0037,91.2219-16.0178,129.7714-36.5361   c1.6876-21.8802,13.6196-41.3326,33.6641-58.8605c3.4049,0.3257,6.7803,0.6218,10.1555,0.8882   c-17.1725,19.0378-32.7462,42.28-47.0764,68.6902c-55.1891,31.8877-117.6617,40.2963-190.6747,19.3932   c-43.8196-12.5242-76.4771,18.2681-68.6014,62.6799c9.5041,53.4422,67.9205,83.9384,131.2813,107.5654   c-4.9445,104.4565-32.6575,194.3164-103.6276,247.729c-66.2328,49.8301-143.9535,30.6145-205.301-35.5294   c-50.3334-54.3009-34.6708-230.9414,20.7255-388.8698C709.5742,728.4332,732.2241,612.9329,733.1716,517.8323z"/>
    <path fill="none" stroke="#000000" stroke-width="15.7527" stroke-miterlimit="10" d="M1118.3405,765.4431   c-60.4889,3.3456-115.9445-2.7535-166.0706-18.8898l4.9445,114.4936c47.2838-5.0037,91.2219-16.0178,129.7713-36.5361   c5.5006-20.9611,15.7867-39.76,33.6641-58.8605c0.1185-0.1184,0.2665-0.2369,0.3849-0.3553   C1120.1465,765.3541,1119.2286,765.4133,1118.3405,765.4431z"/>
    <path fill="#FFFFFF" d="M1461.2291,733.7921c50.1262-19.334,92.4358-46.3364,126.8699-81.244   c120.356-123.524,132.4952-282.7552,21.4658-456.7014c-11.2806-17.6759-23.4199-33.9898-36.329-48.9714   c69.9635,66.4401,111.5033,149.6974,114.7898,255.4863c29.4894,158.4318,78.757,301.5563,151.9772,424.1328   c43.8789,73.4572,81.6881,147.536,96.729,223.0361c25.9069,130.0377-21.9099,222.9768-129.2976,240.8304   c-96.7882,16.077-209.7125-116.7142-235.8563-302.0004c-0.3849,0.1777-0.7698,0.3849-1.1843,0.5626l-1.9246-4.0267   c40.2964-25.1963,67.7428-52.2579,72.4801-85.0042c1.4508-10.1555,0.7106-20.9032-2.5166-32.3022   c-0.681-2.3687-1.4805-4.53-2.4871-6.5434c-11.6655-24.3672-44.3823-22.1171-90.3041-14.1821l-0.7106-4.0859   c-5.7737-40.2963-8.2311-86.988-8.8824-137.1733c-22.946,12.761-47.1061,24.1304-72.5985,33.9602L1461.2291,733.7921z"/>
    <path d="M1501.4366,539.8015c4.2042,16.077-19.4229,36.1808-52.7908,44.9151c-33.3385,8.7047-63.7754,2.7239-67.9797-13.3531   c-4.2042-16.077,19.4227-36.1808,52.7612-44.9151C1466.7954,517.7435,1497.2323,523.7244,1501.4366,539.8015z"/>
    <path fill="#FFFFFF" d="M1590.3491,1581.2286c-113.9607,53.9752-386.7379-74.9672-337.0264-214.5978   c91.814-11.4287,171.0447-76.8029,187.9802-208.5283l4.9149-2.9608c84.8857-5.1813,111.5328,138.4169,28.6309,178.6244   c67.6244,48.2312,119.8823,108.2463,141.644,191.6221c4.8853,18.7122-2.0134,38.2238-16.6396,49.8893   C1596.9813,1577.5869,1593.7837,1579.6002,1590.3491,1581.2286z"/>
    <path fill="#FFFFFF" d="M1353.4565,761.8604c38.7271,54.064,61.7028,148.6611,82.902,257.5884l2.9608-0.5033   c8.231,43.2867,9.8002,88.942,6.8986,136.1962l-4.9149,2.9608c-16.9357,131.7255-96.1664,197.0996-187.9802,208.5283   c0.1184-0.4146,0.296-0.8586,0.4441-1.2732l-58.1202,1.5692c-59.8375-6.3953-120.6224-33.3088-169.8604-77.5726   c-41.4806-72.9537-47.5206-158.6982-19.7188-256.5818c23.0053-73.3387,47.6686-142.3547,77.6614-197.5438   c14.3302-26.4102,29.9039-49.6524,47.0764-68.6902c18.5939,1.5692,36.7433,2.6943,54.4193,3.4049   C1246.8386,772.46,1302.8862,769.7953,1353.4565,761.8604z"/>
    <path fill="#FFFFFF" d="M1436.3585,1019.4489c-21.1992-108.9273-44.1749-203.5245-82.902-257.5884   c39.2306-6.1584,75.1744-15.4849,107.7726-28.0682l2.2206,5.7735c-29.9927,11.6063-61.8507,21.0808-95.6925,28.2163   c10.0667,14.1526,17.2614,29.9928,21.7322,47.3726c50.5703,24.5449,102.5321,35.0557,155.4413,27.6241l0.7106,4.0859   c45.9218-7.9349,78.6385-10.1851,90.3041,14.1821c1.0066,2.0134,1.806,4.1747,2.4871,6.5434   c3.2272,11.399,3.9674,22.1467,2.5166,32.3022c-4.7373,32.7463-32.1837,59.8079-72.48,85.0042l1.9244,4.0267   c-35.0557,16.9357-80.7407,25.3444-131.074,30.0223L1436.3585,1019.4489z"/>
    <path d="M1353.4269,396.8841c3.1384,13.3828,14.8928,23.5383,29.2527,23.9824c17.1726,0.5626,31.5323-12.9386,32.0654-30.0816   c0.5328-17.1725-12.9387-31.5028-30.0817-32.0653c-5.4182-0.148-10.5404,1.0659-15.0408,3.3457   c12.3761-13.7084,30.4961-22.1171,50.3926-21.4657c35.9735,1.1251,64.1898,31.1771,63.0648,67.1506   c-1.1251,35.944-31.2067,64.1899-67.1506,63.0352c-35.944-1.1251-64.1898-31.1771-63.0648-67.1506   C1352.9532,401.3549,1353.1309,399.1047,1353.4269,396.8841z"/>
    <path fill="#FEABD5" d="M1217.7637,575.8046c23.3014,59.7487,37.7205,124.9452-4.9446,152.0068   c-9.0896,5.744-17.8832,8.1718-26.2324,7.7869c-35.6479-1.658-62.4431-54.5377-62.5912-117.336l-28.6307-14.8039   C1140.4872,612.3998,1182.0565,606.3895,1217.7637,575.8046z"/>
    <path fill="#FFFFFF" d="M1083.3024,838.611c-29.9928,55.1891-54.6561,124.205-77.6614,197.5439l-50.3334-7.9053   c-63.3608-23.6271-121.7772-54.1232-131.2813-107.5655c-7.8757-44.4118,24.7818-75.204,68.6014-62.6799   C965.6406,878.9073,1028.1133,870.4987,1083.3024,838.611z"/>
    <path d="M936.9625,573.3471c30.5257,0,55.2779,14.1525,55.2779,31.5916s-24.7522,31.562-55.2779,31.562   c-0.2961,0-0.5922,0-0.8882,0c-30.1112-0.2665-54.36-14.3006-54.36-31.562C881.7144,587.4996,906.4368,573.3471,936.9625,573.3471z   "/>
    <path fill="#FFFFFF" d="M1025.7863,1289.3542c49.2379,44.2638,110.0228,71.1774,169.8604,77.5726l-14.8928,0.4146   c8.4382,131.3701-100.7852,192.007-270.4382,229.9347c-6.9875,1.5692-16.1363,2.7239-26.1437,2.7239   c-24.8706,0-55.0706-7.1355-70.7628-32.8054c-6.4841-10.5701-10.4812-24.2784-10.6588-41.9543   C801.8027,1425.5504,1025.7863,1289.3542,1025.7863,1289.3542z"/>
    <path fill="#FFFFFF" d="M1609.5647,195.8467c-11.2805-17.6759-23.4199-33.9899-36.329-48.9714   c-45.5665-43.3163-103.213-79.4971-170.1859-110.1709c-41.6288-15.1-82.6355-25.4036-123.0503-31.1475   c-60.0151-5.2406-122.7543-1.3324-185.6118,9.6818c-211.9036,37.069-407.8484,227.9805-350.8533,506.2946   c25.5516,124.7972,97.7948,194.9086,191.4741,216.4335c3.02,0.681,6.04,1.3323,9.1192,1.9245   c61.8805,11.9616,119.9415,20.5182,174.2128,25.5516c0.8882-0.0297,1.8059-0.0889,2.6942-0.1481   c-0.1184,0.1184-0.2665,0.2369-0.3849,0.3553c3.4049,0.3257,6.7803,0.6218,10.1555,0.8882   c18.5938,1.5692,36.7434,2.6943,54.4192,3.4049c61.614,2.5167,117.6616-0.148,168.2319-8.0829   c39.2305-6.1584,75.1743-15.4849,107.7727-28.0682c50.1262-19.334,92.4358-46.3364,126.8698-81.244   C1708.4551,529.0241,1720.5942,369.7929,1609.5647,195.8467z M857.8799,476.7662c0-2.3094,0.148-4.5596,0.3553-6.7802   c3.5529,13.2643,15.6329,23.0645,30.0223,23.0645c17.143,0,31.0883-13.9453,31.0883-31.0883   c0-17.1726-13.9453-31.0883-31.0883-31.0883c-5.4182,0-10.5107,1.3619-14.9224,3.7898   c11.932-14.0933,29.7855-23.0349,49.682-23.0349c36.0032,0,65.1373,29.1342,65.1373,65.1374   c0,35.9736-29.1342,65.1374-65.1373,65.1374C887.0438,541.9036,857.8799,512.7398,857.8799,476.7662z M936.9625,636.5006   c-0.2961,0-0.5922,0-0.8882,0c-30.1112-0.2665-54.3601-14.3006-54.3601-31.562c0-17.4391,24.7226-31.5916,55.2483-31.5916   c30.5258,0,55.2779,14.1525,55.2779,31.5916C992.2405,622.3777,967.4883,636.5006,936.9625,636.5006z M1212.8191,727.8113   c-9.0896,5.744-17.8832,8.1718-26.2324,7.7869c-35.6479-1.658-62.4431-54.5377-62.5912-117.336l-28.6309-14.8039   c45.1223,8.9416,86.6919,2.9312,122.3989-27.6537C1241.0652,635.5532,1255.484,700.7498,1212.8191,727.8113z M1352.8644,403.6347   c0.0887-2.2798,0.2665-4.53,0.5625-6.7506c3.1384,13.3828,14.8928,23.5383,29.2527,23.9824   c17.1726,0.5625,31.5322-12.9387,32.0653-30.0816c0.533-17.1726-12.9386-31.5028-30.0815-32.0654   c-5.4182-0.148-10.5404,1.0659-15.0408,3.3457c12.376-13.7084,30.4961-22.1171,50.3926-21.4657   c35.9735,1.1251,64.1898,31.1771,63.0647,67.1506c-1.125,35.944-31.2067,64.1899-67.1505,63.0352   C1379.9852,469.6603,1351.7394,439.6083,1352.8644,403.6347z M1448.646,584.7166c-33.3386,8.7047-63.7754,2.7239-67.9797-13.3531   c-4.2042-16.077,19.4227-36.1808,52.7612-44.9151c33.3679-8.7047,63.8049-2.7239,68.0093,13.3531   C1505.641,555.8784,1482.0138,575.9821,1448.646,584.7166z"/>
    <path d="M923.0173,411.6288c36.0032,0,65.1373,29.1342,65.1373,65.1374c0,35.9735-29.1342,65.1374-65.1373,65.1374   c-35.9736,0-65.1373-29.1638-65.1373-65.1374c0-2.3094,0.148-4.5596,0.3553-6.7802c3.5529,13.2643,15.6329,23.0645,30.0224,23.0645   c17.143,0,31.0883-13.9453,31.0883-31.0883c0-17.1726-13.9453-31.0883-31.0883-31.0883c-5.4182,0-10.5108,1.362-14.9224,3.7898   C885.2673,420.5704,903.1208,411.6288,923.0173,411.6288z"/>
    <path fill="none" stroke="#000000" stroke-width="6.3011" stroke-miterlimit="10" d="M935.0084,737.9669   c-93.6793-21.5249-165.9225-91.6364-191.4741-216.4335c-56.9951-278.314,138.9498-469.2256,350.8534-506.2946   c62.8574-11.0141,125.5966-14.9224,185.6118-9.6818c113.1317,9.8594,216.6406,52.3171,293.2363,141.3184   c12.9091,14.9816,25.0483,31.2955,36.3289,48.9714c111.0294,173.9463,98.8903,333.1775-21.4658,456.7014   c-34.4341,34.9077-76.7437,61.91-126.8699,81.244c-32.5983,12.5833-68.5421,21.9098-107.7726,28.0682   c-50.5703,7.9349-106.6179,10.5996-168.2318,8.0829c-17.6759-0.7106-35.8256-1.8357-54.4193-3.4049   c-3.3754-0.2665-6.7506-0.5626-10.1555-0.8882c-0.7698-0.0592-1.5397-0.148-2.3094-0.2072   c-54.2711-5.0334-112.3323-13.59-174.2126-25.5516C941.0485,739.2993,938.0284,738.6478,935.0084,737.9669z"/>
    <path fill="none" stroke="#000000" stroke-width="15.7527" stroke-miterlimit="10" d="M1253.3228,1366.6309   c-49.7117,139.6306,223.0657,268.573,337.0264,214.5978c3.4344-1.6284,6.6322-3.6417,9.5042-5.9512   c14.6262-11.6655,21.5249-31.1771,16.6396-49.8893c-21.7618-83.3757-74.0198-143.3909-141.6442-191.6221   c82.902-40.2075,56.2549-183.8057-28.6307-178.6244c2.9016-47.2542,1.3323-92.9094-6.8987-136.1962   c50.3334-4.678,96.0183-13.0867,131.0741-30.0223c0.4144-0.1777,0.7993-0.3849,1.1843-0.5626   c26.1438,185.2861,139.0681,318.0774,235.8563,302.0004c107.3877-17.8536,155.2045-110.7927,129.2976-240.8304   c-15.0409-75.5001-52.8501-149.579-96.729-223.0361c-73.2202-122.5766-122.4878-265.701-151.9772-424.1328   c-3.2865-105.7889-44.8263-189.0463-114.7897-255.4863c-45.5665-43.3163-103.213-79.4971-170.186-110.1709   c-41.6288-15.1-82.6356-25.4036-123.0503-31.1475c-125.2709-17.8239-245.0052,7.8461-360.2982,68.1573   c-153.1615,93.324-203.939,248.2028-186.5296,444.1181c-0.9474,95.1005-23.5975,210.6008-65.6407,330.3646   c-55.3963,157.9283-71.0589,334.569-20.7255,388.8698c61.3475,66.1439,139.0682,85.3595,205.301,35.5294   c70.9701-53.4126,98.683-143.2725,103.6276-247.729l50.3334,7.9053c-27.8018,97.8835-21.7618,183.6281,19.7188,256.5818   c0,0-223.9836,136.1962-223.0361,235.886c0.1777,17.6759,4.1747,31.3843,10.6588,41.9543   c15.6922,25.6699,45.8922,32.8054,70.7628,32.8054c10.0074,0,19.1563-1.1547,26.1437-2.7239   c169.6531-37.9277,279.5184-99.6241,271.0803-230.9943"/>
    <path fill="none" stroke="#000000" stroke-width="15.7527" stroke-miterlimit="10" d="M1177.0624,1371.7819   c26.2062,6.7004,51.4579,8.9229,73.8334,0.1666"/>
    <path fill="none" stroke="#000000" stroke-width="6.3011" stroke-miterlimit="10" d="M1027.3956,1288.9485   c49.2379,44.2638,108.4135,71.5831,168.2509,77.9784c19.4523,2.1317,38.8159,2.043,57.6761-0.296   c91.814-11.4287,171.0447-76.8029,187.9802-208.5283"/>
    <path fill="none" stroke="#000000" stroke-width="6.3011" stroke-miterlimit="10" d="M1010.6401,1033.8361   c23.0053-73.3387,43.096-143.4183,73.0887-198.6074c14.3302-26.4102,29.9039-49.6524,47.0764-68.6902"/>
    <path fill="none" stroke="#000000" stroke-width="6.3011" stroke-miterlimit="10" d="M1436.3585,1019.4489   c-21.1992-108.9273-44.1749-203.5245-82.902-257.5884"/>
    <path fill="none" stroke="#000000" stroke-width="6.3011" stroke-miterlimit="10" d="M1083.7289,835.2288   c-55.1891,31.8877-117.6617,40.2963-190.6747,19.3932c-43.8196-12.5242-76.4771,18.2681-68.6014,62.6799   c9.5041,53.4422,68.8242,80.9361,132.1849,104.5632"/>
    <path fill="none" stroke="#000000" stroke-width="15.7527" stroke-miterlimit="10" d="M1463.4497,739.5656   c-29.9927,11.6063-61.8507,21.0808-95.6925,28.2163c10.0667,14.1526,17.2614,29.9928,21.7322,47.3726   c50.5703,24.5449,102.5321,35.0557,155.4413,27.6241c-5.7737-40.2963-8.2311-86.988-8.8824-137.1733   C1513.1022,718.3665,1488.9421,729.7358,1463.4497,739.5656z"/>
    <path fill="none" stroke="#000000" stroke-width="6.3011" stroke-miterlimit="10" d="M1568.469,984.8965   c40.2963-25.1963,67.7427-52.2579,72.48-85.0042c1.4508-10.1555,0.7106-20.9032-2.5166-32.3022   c-0.681-2.3687-1.4805-4.53-2.4871-6.5434c-11.6655-24.3672-46.0094-21.4497-91.9312-13.5147"/>
    
        <line fill="none" stroke="#000000" stroke-width="6.3011" stroke-miterlimit="10" x1="1635.9453" y1="861.0468" x2="1582.9175" y2="875.6434"/>
    <polyline fill="none" stroke="#000000" stroke-width="6.3011" stroke-miterlimit="10" points="1641.6595,899.6555    1640.949,899.8923 1589.8458,917.3018  "/>
    
        <line fill="none" stroke="#000000" stroke-width="6.3011" stroke-miterlimit="10" x1="830.5815" y1="875.6434" x2="878.7535" y2="890.6547"/>
    
        <line fill="none" stroke="#000000" stroke-width="6.3011" stroke-miterlimit="10" x1="824.4526" y1="917.3018" x2="872.832" y2="935.0664"/>
    <path fill="none" stroke="#000000" stroke-width="9.4517" stroke-linejoin="round" stroke-miterlimit="8" d="M1095.3647,603.4583   c45.1223,8.9415,86.6918,2.9312,122.3989-27.6537c23.3014,59.7487,37.7205,124.9452-4.9446,152.0068   c-9.0896,5.744-17.8832,8.1718-26.2324,7.7869c-35.6479-1.658-62.4431-54.5377-62.5912-117.336L1095.3647,603.4583z"/>
    <path fill="none" stroke="#000000" stroke-width="6.3011" stroke-miterlimit="10" d="M1599.8533,1575.2775   c0,0-10.0074-68.3053-50.4814-79.6451"/>
    <path fill="none" stroke="#000000" stroke-width="6.3011" stroke-miterlimit="10" d="M1541.8514,1593.1606   c0,0-10.5404-54.8042-52.702-74.8191"/>
    <path fill="none" stroke="#000000" stroke-width="6.3011" stroke-miterlimit="10" d="M884.1718,1600   c0,0,1.4804-71.2957,55.2779-81.6584"/>
    <path fill="none" stroke="#000000" stroke-width="6.3011" stroke-miterlimit="10" d="M813.4089,1567.1946   c0,0,16.9653-58.7421,64.3379-71.5623"/>
</g>
</svg>
